<?xml version="1.0" encoding="UTF-8"?>
<svg version="1.1" xmlns="http://www.w3.org/2000/svg" xmlns:xlink="http://www.w3.org/1999/xlink">
<defs>

</defs>
<symbol id="i-access" viewBox="0 0 24 24" fill="none" xmlns="http://www.w3.org/2000/svg"><path fill-rule="evenodd" clip-rule="evenodd" d="M22 2h-4l-7.36 7.36a6.5 6.5 0 104 4L17 11V9h2l1-1V6h2V2zM9 16.5a1.5 1.5 0 11-3 0 1.5 1.5 0 013 0z" fill="currentColor"/></symbol>
<symbol id="i-action-dropdown-collapse-sm" viewBox="0 0 24 24" fill="none" xmlns="http://www.w3.org/2000/svg"><path d="M9 15l-1-1 4-4 4 4-1 1-3-3-3 3z" fill="currentColor"/></symbol>
<symbol id="i-action-dropdown-expand-sm" viewBox="0 0 24 24" fill="none" xmlns="http://www.w3.org/2000/svg"><path d="M9 10l-1 1 4 4 4-4-1-1-3 3-3-3z" fill="currentColor"/></symbol>
<symbol id="i-add" viewBox="0 0 24 24" fill="none" xmlns="http://www.w3.org/2000/svg"><path fill-rule="evenodd" clip-rule="evenodd" d="M13 3v7.999L21 11v2l-8-.001V21h-2v-8.001L3 13v-2l8-.001V3h2z" fill="currentColor"/></symbol>
<symbol id="i-archive" viewBox="0 0 24 24" fill="none" xmlns="http://www.w3.org/2000/svg"><path fill-rule="evenodd" clip-rule="evenodd" d="M4 2h16l2 5v15H2V7l2-5zm1 2h14l1 3H4l1-3zm6 5h2v6.171l2.586-2.585L17 14l-5 5-5-5 1.414-1.414L11 15.172V9z" fill="currentColor"/></symbol>
<symbol id="i-arrow-bottom" viewBox="0 0 24 24" fill="none" xmlns="http://www.w3.org/2000/svg"><path d="M13 4h-2v12.172l-4.586-4.586L5 13l7 7 7-7-1.414-1.414L13 16.172V4z" fill="currentColor"/></symbol>
<symbol id="i-arrow-left" viewBox="0 0 24 24" fill="none" xmlns="http://www.w3.org/2000/svg"><path d="M20 13v-2H7.828l4.586-4.586L11 5l-7 7 7 7 1.414-1.414L7.828 13H20z" fill="currentColor"/></symbol>
<symbol id="i-arrow-right" viewBox="0 0 24 24" fill="none" xmlns="http://www.w3.org/2000/svg"><path d="M4 13v-2h12.172l-4.586-4.586L13 5l7 7-7 7-1.414-1.414L16.172 13H4z" fill="currentColor"/></symbol>
<symbol id="i-arrow-up" viewBox="0 0 24 24" fill="none" xmlns="http://www.w3.org/2000/svg"><path d="M13 20h-2V7.828l-4.586 4.586L5 11l7-7 7 7-1.414 1.414L13 7.828V20z" fill="currentColor"/></symbol>
<symbol id="i-attach" viewBox="0 0 24 24" fill="none" xmlns="http://www.w3.org/2000/svg"><path d="M18.84 9.527a3.915 3.915 0 00-5.684-5.38l-7.562 7.562-.172.18a5.443 5.443 0 007.87 7.517l4.68-4.681-1.215-1.216-4.681 4.681-.154.146a3.724 3.724 0 01-5.113-5.412l7.563-7.562.126-.117a2.196 2.196 0 012.98 3.223L9.914 16.03l-.083.07a.668.668 0 01-.862-1.015l4.681-4.682-1.215-1.215-4.681 4.681-.117.125a2.387 2.387 0 003.493 3.251l7.562-7.562.147-.156z" fill="currentColor"/></symbol>
<symbol id="i-backtodefault" viewBox="0 0 24 24" fill="none" xmlns="http://www.w3.org/2000/svg"><path fill-rule="evenodd" clip-rule="evenodd" d="M7.414 10l2.293 2.293-1.414 1.414L3.586 9l4.707-4.707 1.414 1.414L7.414 8H14.5a5.5 5.5 0 110 11H5v-2h9.5a3.5 3.5 0 100-7H7.414z" fill="currentColor"/></symbol>
<symbol id="i-bulb" viewBox="0 0 24 24" fill="none" xmlns="http://www.w3.org/2000/svg"><path d="M21 9a7.997 7.997 0 01-4 6.93V18h-3v-6h2v-2h-6v2h2v6H9v-2.07A8 8 0 1121 9zM16 22v-2h-6v2h6z" fill="currentColor"/></symbol>
<symbol id="i-by-rooms-number" viewBox="0 0 24 24" fill="none" xmlns="http://www.w3.org/2000/svg"><path fill-rule="evenodd" clip-rule="evenodd" d="M22 2H2v11h9v9h11V2zM4 7l2-2H5L4 6V4h7v7H9l1-1V9l-2 2H6l4-4V6l-5 5H4v-1l5-5H8L4 9V7zm9 0l2-2h-1l-1 1V4h7v16h-2l1-1v-1l-2 2h-2l4-4v-1l-5 5h-1v-1l6-6v-1l-6 6v-2l6-6V9l-6 6v-2l6-6V6l-6 6v-2l5-5h-1l-4 4V7z" fill="currentColor"/></symbol>
<symbol id="i-by-willingness-to-pay" viewBox="0 0 24 24" fill="none" xmlns="http://www.w3.org/2000/svg"><path fill-rule="evenodd" clip-rule="evenodd" d="M22 8.5a6.5 6.5 0 11-13 0 6.5 6.5 0 0113 0zM14 5v5h-1v1h1v1h1v-1h1v-1h-1V9h3V8h-3V6h3V5h-4z" fill="currentColor"/><path d="M6.917 14H2v5c.45 0 .849-.01 1.208-.017C5.135 18.938 5.92 18.92 7.5 20.5c.96.96 2.263 1.5 3.621 1.5h3.811a5.388 5.388 0 003.605-1.383L21.683 18a.967.967 0 00-1.183-1.523l-1.803 1.058a2.767 2.767 0 01-1.535.465H17a2 2 0 01-2 2h-.566a5 5 0 01-2.65-.76l-1.45-.907.726.182c1.288.322 2.612.485 3.94.485a1 1 0 100-2 6 6 0 01-3.6-1.2l-.733-.55A6.25 6.25 0 006.917 14z" fill="currentColor"/></symbol>
<symbol id="i-calendar" viewBox="0 0 24 24" fill="none" xmlns="http://www.w3.org/2000/svg"><path d="M16 17a2 2 0 100-4 2 2 0 000 4z" fill="currentColor"/><path fill-rule="evenodd" clip-rule="evenodd" d="M4 1h2v2h12V1h2v2h2v18H2V3h2V1zm0 8h16v10H4V9z" fill="currentColor"/></symbol>
<symbol id="i-cancel-search" viewBox="0 0 24 24" fill="none" xmlns="http://www.w3.org/2000/svg"><path fill-rule="evenodd" clip-rule="evenodd" d="M12 19a7 7 0 100-14 7 7 0 000 14zm-4-4.059L9.059 16 12 13.059 14.941 16 16 14.941 13.059 12 16 9.059 14.941 8 12 10.941 9.059 8 8 9.059 10.941 12 8 14.941z" fill="currentColor"/></symbol>
<symbol id="i-chat" viewBox="0 0 24 24" fill="none" xmlns="http://www.w3.org/2000/svg"><path d="M19 3H1v12h2v5l5-5h11V3z" fill="currentColor"/><path d="M21 17H10v2h8l3 3v-3h2V8h-2v9z" fill="currentColor"/></symbol>
<symbol id="i-checkmark" viewBox="0 0 24 24" fill="none" xmlns="http://www.w3.org/2000/svg"><path d="M4 12l2-2 4 4 8-8 2 2-10 10-6-6z" fill="currentColor"/></symbol>
<symbol id="i-chevron-right" viewBox="0 0 24 24" fill="none" xmlns="http://www.w3.org/2000/svg"><path d="M8.958 8.042L10 7l5 5-5 5-1.042-1.042L13.125 12 8.958 8.042z" fill="currentColor"/></symbol>
<symbol id="i-clear" viewBox="0 0 24 24" fill="none" xmlns="http://www.w3.org/2000/svg"><path d="M22.718 1.582L19.978 0 15.23 8.221l-2.74-1.582-1.055 1.827 8.221 4.747 1.055-1.827-2.74-1.583 4.746-8.22zM10.645 9.836l8.221 4.747L18.301 24l-.258-.022-.09-.008c-2.144-.181-4.596-.389-8.928-2.89a22.047 22.047 0 01-2.276-1.487c2.03-1.632 3.086-4.135 3.086-4.135s-2.671 1.999-5.273 2.046C3.385 16.03 2.724 14.217 2 12c1.883.254 6.173.153 8.645-2.164z" fill="currentColor"/></symbol>
<symbol id="i-clock" viewBox="0 0 24 24" fill="none" xmlns="http://www.w3.org/2000/svg"><path fill-rule="evenodd" clip-rule="evenodd" d="M2 12c0 5.523 4.477 10 10 10s10-4.477 10-10S17.523 2 12 2 2 6.477 2 12zm10-6h2v8H6v-2h6V6z" fill="#000"/></symbol>
<symbol id="i-close" viewBox="0 0 24 24" fill="none" xmlns="http://www.w3.org/2000/svg"><path fill-rule="evenodd" clip-rule="evenodd" d="M17.6 5L19 6.4 13.4 12l5.6 5.6-1.4 1.4-5.6-5.6L6.4 19 5 17.6l5.6-5.6L5 6.4 6.4 5l5.6 5.6L17.6 5z" fill="currentColor"/></symbol>
<symbol id="i-cookies" viewBox="0 0 40 40" fill="none" xmlns="http://www.w3.org/2000/svg"><path fill-rule="evenodd" clip-rule="evenodd" d="M20.53.007A20.382 20.382 0 0020 0C8.954 0 0 8.954 0 20s8.954 20 20 20 20-8.954 20-20c0-.177-.002-.355-.007-.531-1.435-.002-2.87-.841-3.366-2.518-2.204 2.721-6.596.902-6.23-2.58-3.077 1.67-6.44-1.692-4.769-4.769-3.482.366-5.302-4.027-2.58-6.23-1.676-.497-2.516-1.93-2.518-3.365z" fill="#D59051"/><circle cx="15.001" cy="30" fill="#E9BE97" r="1.667"/><circle cx="20.001" cy="21.666" r="1.667" fill="#E9BE97"/><circle cx="13.333" cy="11.667" r="1.667" fill="#E9BE97"/><circle cx="26.667" cy="29.999" fill="#E9BE97" r="3.333"/><circle cx="9.167" cy="20.834" fill="#E9BE97" r="4.167"/><circle cx="30.834" cy="4.167" fill="#E9BE97" r="2.5"/><circle cx="36.665" cy="11.667" fill="#E9BE97" r="1.667"/></symbol>
<symbol id="i-dashboard" viewBox="0 0 24 24" fill="none" xmlns="http://www.w3.org/2000/svg"><path fill-rule="evenodd" clip-rule="evenodd" d="M12 22C6.477 22 2 17.523 2 12S6.477 2 12 2s10 4.477 10 10-4.477 10-10 10zm8-10a8.001 8.001 0 00-7-7.938v15.876A8.001 8.001 0 0020 12zM4.062 11H11V4.062A8.004 8.004 0 004.062 11zm0 2A8.004 8.004 0 0011 19.938V13H4.062z" fill="currentColor"/></symbol>
<symbol id="i-delete" viewBox="0 0 24 24" fill="none" xmlns="http://www.w3.org/2000/svg"><path d="M8 1h8v2H8V1z" fill="currentColor"/><path fill-rule="evenodd" clip-rule="evenodd" d="M22 5H2v3h3l1 13h12l1-13h3V5zM9 14.941L10.059 16 12 14.059 13.941 16 15 14.941 13.059 13 15 11.059 13.941 10 12 11.941 10.059 10 9 11.059 10.941 13 9 14.941z" fill="currentColor"/></symbol>
<symbol id="i-details-1" viewBox="0 0 24 24" fill="none" xmlns="http://www.w3.org/2000/svg"><path fill-rule="evenodd" clip-rule="evenodd" d="M20 6H4v13h16V6zM2 4v17h20V4H2zm5 5h2v2H7V9zm2 5H7v2h2v-2zm2-5h6v2h-6V9zm6 5h-6v2h6v-2z" fill="currentColor"/></symbol>
<symbol id="i-details" viewBox="0 0 24 24" fill="none" xmlns="http://www.w3.org/2000/svg"><path fill-rule="evenodd" clip-rule="evenodd" d="M19 5H5v14h14V5zM3 3v18h18V3H3zm4 4h2v2H7V7zm2 4H7v2h2v-2zm-2 4h2v2H7v-2zm10-8h-6v2h6V7zm-6 4h6v2h-6v-2zm6 4h-6v2h6v-2z" fill="currentColor"/></symbol>
<symbol id="i-distress" viewBox="0 0 24 24" fill="none" xmlns="http://www.w3.org/2000/svg"><path d="M0 12h8l2 9 4-18 2 9h8" stroke="currentColor" stroke-width="2"/></symbol>
<symbol id="i-dont-show" viewBox="0 0 24 24" fill="none" xmlns="http://www.w3.org/2000/svg"><path fill-rule="evenodd" clip-rule="evenodd" d="M2.414 23L23 2.414 21.586 1l-4.318 4.318A11.174 11.174 0 0012 4C6.995 4 2.717 7.317 1 12c.821 2.239 2.227 4.166 4.019 5.567L1 21.586 2.414 23zm5.414-8.243a5 5 0 016.929-6.929l-1.464 1.464a3 3 0 00-4.001 4.001l-1.464 1.464z" fill="currentColor"/><path d="M12 17c-.338 0-.669-.034-.988-.098l-2.53 2.53c1.111.37 2.293.568 3.518.568 5.005 0 9.283-3.317 11-8a12.682 12.682 0 00-2.709-4.377l-3.389 3.389A5 5 0 0112 17z" fill="currentColor"/></symbol>
<symbol id="i-dot-large" viewBox="0 0 24 24" fill="none" xmlns="http://www.w3.org/2000/svg"><path fill-rule="evenodd" clip-rule="evenodd" d="M12 19a7 7 0 100-14 7 7 0 000 14z" fill="currentColor"/></symbol>
<symbol id="i-dot-medium" viewBox="0 0 24 24" fill="none" xmlns="http://www.w3.org/2000/svg"><path fill-rule="evenodd" clip-rule="evenodd" d="M12 17a5 5 0 100-10 5 5 0 000 10z" fill="currentColor"/></symbol>
<symbol id="i-download-1" viewBox="0 0 24 24" fill="none" xmlns="http://www.w3.org/2000/svg"><path d="M11 2.05C5.947 2.55 2 6.814 2 12c0 5.523 4.477 10 10 10s10-4.477 10-10c0-5.185-3.946-9.449-9-9.95v11.548L16.6 10l1.4 1.4-6 6-6-6L7.4 10l3.6 3.6V2.05z" fill="currentColor"/></symbol>
<symbol id="i-download" viewBox="0 0 24 24" fill="none" xmlns="http://www.w3.org/2000/svg"><path d="M13 3h-2v9.172L8.414 9.586 7 11l5 5 5-5-1.414-1.414L13 12.17V3z" fill="currentColor"/><path d="M20 14v5H4v-5H2v7h20v-7h-2z" fill="currentColor"/></symbol>
<symbol id="i-drag" viewBox="0 0 24 24" fill="none" xmlns="http://www.w3.org/2000/svg"><path d="M8 4l1.5 1.5L12 3l2.5 2.5L16 4l-4-4-4 4zM8 20l1.5-1.5L12 21l2.5-2.5L16 20l-4 4-4-4zM18.5 14.5L20 16l4-4-4-4-1.5 1.5L21 12l-2.5 2.5zM5.5 14.5L4 16l-4-4 4-4 1.5 1.5L3 12l2.5 2.5z" fill="currentColor"/></symbol>
<symbol id="i-dropdown-collapse-md" viewBox="0 0 24 24" fill="none" xmlns="http://www.w3.org/2000/svg"><path d="M7.25 15.25L6 14l6-6 6 6-1.25 1.25-4.75-5-4.75 5z" fill="currentColor"/></symbol>
<symbol id="i-dropdown-expand-md" viewBox="0 0 24 24" fill="none" xmlns="http://www.w3.org/2000/svg"><path d="M7.25 9L6 10.25l6 6 6-6L16.75 9 12 14 7.25 9z" fill="currentColor"/></symbol>
<symbol id="i-duplicate" viewBox="0 0 24 24" fill="none" xmlns="http://www.w3.org/2000/svg"><path fill-rule="evenodd" clip-rule="evenodd" d="M3 3h14v14H3V3zm2 2h10v10H5V5z" fill="currentColor"/><path d="M19 7h2v14H7v-2h12V7z" fill="currentColor"/></symbol>
<symbol id="i-edit" viewBox="0 0 24 24" fill="none" xmlns="http://www.w3.org/2000/svg"><path d="M15 6l3-3 3 3-3 3-3-3zM16.5 10.5l-3-3L4 17v3h3.5l9-9.5z" fill="currentColor"/></symbol>
<symbol id="i-empty-apartments" viewBox="0 0 40 40" fill="none" xmlns="http://www.w3.org/2000/svg"><path fill-rule="evenodd" clip-rule="evenodd" d="M20 11.666c0-5.522-4.477-10-10-10s-10 4.478-10 10c0 5.523 4.477 10 10 10s10-4.477 10-10zm-10 6.667A6.667 6.667 0 0015.744 8.28l-9.13 9.13c.992.587 2.15.923 3.386.923zM10 5c1.236 0 2.394.336 3.387.923l-9.13 9.13A6.667 6.667 0 0110 5zm0 23.333c0-1.54.417-2.98 1.145-4.218a12.47 12.47 0 008.125-4.063c.66.074 1.297.225 1.901.444L31.667 10h5v5h-3.334v3.333H30v3.334l-3.829 3.828A8.333 8.333 0 1110 28.334zm10 .834a2.5 2.5 0 11-5 0 2.5 2.5 0 015 0z" fill="currentColor"/></symbol>
<symbol id="i-export" viewBox="0 0 24 24" fill="none" xmlns="http://www.w3.org/2000/svg"><path fill-rule="evenodd" clip-rule="evenodd" d="M11 16h2V5.828l2.586 2.586L17 7l-5-5-5 5 1.414 1.414L11 5.828V16zm9-3h-4v-2h6v11H2V11h6v2H4v7h16v-7z" fill="currentColor"/></symbol>
<symbol id="i-external-link" viewBox="0 0 24 24" fill="none" xmlns="http://www.w3.org/2000/svg"><path d="M8 6v2h6.586l-9.293 9.293 1.414 1.414L16 9.414V16h2V6H8z" fill="currentColor"/></symbol>
<symbol id="i-eye" viewBox="0 0 24 24" fill="none" xmlns="http://www.w3.org/2000/svg"><path fill-rule="evenodd" clip-rule="evenodd" d="M23 12s-2.5 8-11 8-11-8-11-8 2.5-8 11-8 11 8 11 8zm-6 0a5 5 0 11-10 0 5 5 0 0110 0zm-5 3a3 3 0 100-6 3 3 0 000 6z" fill="currentColor"/></symbol>
<symbol id="i-fact-empty" viewBox="0 0 24 24" fill="none" xmlns="http://www.w3.org/2000/svg"><path fill-rule="evenodd" clip-rule="evenodd" d="M2 6l10-5 10 5v12l-10 5-10-5V6zm13 8.5l-2-1V3.736l7 3.5v9.528l-.236.118L18 16V8.236l-3-1.5V14.5zM11 3.736V13.5l-6.764 3.382L4 16.764V7.236l7-3.5z" fill="currentColor"/></symbol>
<symbol id="i-fact-inhabitants" viewBox="0 0 24 24" fill="none" xmlns="http://www.w3.org/2000/svg"><path d="M10 3v2H6V3a2 2 0 114 0zM19 11h-3l1 12h2V11zM13 11h3l-1 12h-2V11zM11.143 7.429l.519 2.017L13 9V6.5l-1.857.929zM10 13H6l1 10h2l1-10zM5 10.889L6 7v5l-1-1.111zM11 10.889L10 7v5l1-1.111zM20.5 10L19 6.5V11l1.5-1zM7 7H6v5h4V7H9a1.118 1.118 0 01-2 0z" fill="currentColor"/><path d="M14.293 6L13 6.5V15h6V6.5L17.707 6 16 7.92 14.293 6zM6 12l-2 5h8l-2-5H6zM16 5a2 2 0 002-2V1h-2a2 2 0 100 4z" fill="currentColor"/></symbol>
<symbol id="i-fact-new" viewBox="0 0 24 24" fill="none" xmlns="http://www.w3.org/2000/svg"><path d="M3.45 3.45L4.5 1l1.05 2.45L8 4.5 5.55 5.55 4.5 8 3.45 5.55 1 4.5l2.45-1.05z" fill="currentColor"/><path fill-rule="evenodd" clip-rule="evenodd" d="M8.703 8.297L15 2h3v3h-2v2h-2v2l-2.297 2.297a5 5 0 11-3-3zM8 13.5a1.5 1.5 0 11-3 0 1.5 1.5 0 013 0z" fill="currentColor"/><path d="M16.5 15.5L18 12l1.5 3.5L23 17l-3.5 1.5L18 22l-1.5-3.5L13 17l3.5-1.5zM10.5 18l-.75 1.75L8 20.5l1.75.75.75 1.75.75-1.75L13 20.5l-1.75-.75L10.5 18z" fill="currentColor"/></symbol>
<symbol id="i-fact-specific" viewBox="0 0 24 24" fill="none" xmlns="http://www.w3.org/2000/svg"><path d="M13 3H3v18h2v-8h8V3z" fill="currentColor"/><path d="M15 7v8h-4v2h11l-4-5 4-5h-7z" fill="currentColor"/></symbol>
<symbol id="i-fact-to-rent" viewBox="0 0 24 24" fill="none" xmlns="http://www.w3.org/2000/svg"><path fill-rule="evenodd" clip-rule="evenodd" d="M12 2H2v8h10l4-4-4-4zm-1 2H4v1.5h7V4zM4 6.5h4V8H4V6.5zM12.703 12.297L19 6h3v3h-2v2h-2v2l-2.297 2.297a5 5 0 11-3-3zM12 17.5a1.5 1.5 0 11-3 0 1.5 1.5 0 013 0z" fill="currentColor"/></symbol>
<symbol id="i-fact-total" viewBox="0 0 24 24" fill="none" xmlns="http://www.w3.org/2000/svg"><path fill-rule="evenodd" clip-rule="evenodd" d="M21 3H3v18h18V3zm-4 3H6.048l4.32 6-4.32 6H17v-3.143h-2V16H9.952l2.88-4-2.88-4H15v1.143h2V6z" fill="currentColor"/></symbol>
<symbol id="i-fact-vicinity" viewBox="0 0 24 24" fill="none" xmlns="http://www.w3.org/2000/svg"><path d="M5.07 10a8 8 0 1013.86 0c.41-.71.703-1.469.877-2.25A9.958 9.958 0 0122 14c0 5.523-4.477 10-10 10S2 19.523 2 14c0-2.365.82-4.538 2.193-6.25.174.781.466 1.54.877 2.25z" fill="currentColor"/><path d="M7.219 12.533a5 5 0 109.562 0l-1.8 1.799a3 3 0 01-5.963 0l-1.8-1.8z" fill="currentColor"/><path fill-rule="evenodd" clip-rule="evenodd" d="M16.243 1.757a6 6 0 10-8.486 8.486L12 14.485l4.243-4.242a6 6 0 000-8.486zM12 8a2 2 0 100-4 2 2 0 000 4z" fill="currentColor"/></symbol>
<symbol id="i-file" viewBox="0 0 24 24" fill="none" xmlns="http://www.w3.org/2000/svg"><path fill-rule="evenodd" clip-rule="evenodd" d="M5 3h7v7h7v11H5V3zm14 5l-5-5v5h5z" fill="currentColor"/></symbol>
<symbol id="i-files" viewBox="0 0 24 24" fill="none" xmlns="http://www.w3.org/2000/svg"><path fill-rule="evenodd" clip-rule="evenodd" d="M4 2h6v6h6v10H4V2zm12 4.5L11.5 2v4.5H16zM8 20h10V6h2v16H8v-2z" fill="currentColor"/></symbol>
<symbol id="i-filter" viewBox="0 0 24 24" fill="none" xmlns="http://www.w3.org/2000/svg"><path d="M2 3h20L12 14 2 3z" fill="currentColor"/><path d="M10 9h4v10l-4 2V9z" fill="currentColor"/></symbol>
<symbol id="i-import" viewBox="0 0 24 24" fill="none" xmlns="http://www.w3.org/2000/svg"><path d="M13 2h-2v10.172L8.414 9.586 7 11l5 5 5-5-1.414-1.414L13 12.17V2z" fill="currentColor"/><path d="M16 4h4v16H4V4h4V2H2v20h20V2h-6v2z" fill="currentColor"/></symbol>
<symbol id="i-location" viewBox="0 0 24 24" fill="none" xmlns="http://www.w3.org/2000/svg"><path fill-rule="evenodd" clip-rule="evenodd" d="M18 10c0 3.83-1.676 6.33-3.368 7.916A12.327 12.327 0 0112 19.794a12.328 12.328 0 01-2.632-1.878C7.676 16.33 6 13.829 6 10a6 6 0 1112 0zm2 0c0 9-8 12-8 12s-8-3-8-12a8 8 0 1116 0zm-6 0a2 2 0 11-4 0 2 2 0 014 0zm2 0a4 4 0 11-8 0 4 4 0 018 0z" fill="currentColor"/></symbol>
<symbol id="i-log-out" viewBox="0 0 24 24" fill="none" xmlns="http://www.w3.org/2000/svg"><path d="M13 1h-2v7h2V1z" fill="currentColor"/><path d="M3 12a9.004 9.004 0 016-8.488v2.162a7 7 0 106 0V3.512A9 9 0 113 12z" fill="currentColor"/></symbol>
<symbol id="i-logo-dark" viewBox="0 0 192 24" fill="none" xmlns="http://www.w3.org/2000/svg"><path d="M46.984 9.12c1.416 0 2.514.33 3.294.99.792.66 1.188 1.548 1.188 2.664 0 .888-.21 1.62-.63 2.196-.408.564-.996.978-1.764 1.242L52.168 21h-3.42l-2.538-4.338h-1.854V21h-3.042V9.12h5.67zm-.432 5.346c.6 0 1.05-.12 1.35-.36.3-.24.45-.624.45-1.152 0-.996-.6-1.494-1.8-1.494h-2.196v3.006h2.196zM54.724 21V9.12h9.252v2.394H57.82v2.412h4.896v2.25H57.82v2.43h6.39V21h-9.486zM65.838 21l4.176-11.88h3.708L77.88 21h-3.186l-.81-2.682H69.78L68.952 21h-3.114zm5.49-7.65l-.9 2.862h2.808l-.864-2.844-.522-1.872h-.036l-.486 1.854zM83.357 18.606h5.958V21h-9.054V9.12h3.096v9.486zM105.841 9.12V21h-2.736v-5.454l.09-3.654h-.036L100.225 21h-2.502l-2.934-9.108h-.036l.09 3.654V21H92.09V9.12h4.41l1.872 6.048.666 2.52h.036l.684-2.502 1.854-6.066h4.23zM108.23 21l4.176-11.88h3.708L120.272 21h-3.186l-.81-2.682h-4.104L111.344 21h-3.114zm5.49-7.65l-.9 2.862h2.808l-.864-2.844-.522-1.872h-.036l-.486 1.854zM131.15 9.12v2.394h-3.87V21h-3.096v-9.486h-3.888V9.12h10.854zM143.957 17.598c-.348 1.248-.99 2.16-1.926 2.736-.924.564-2.016.846-3.276.846-1.212 0-2.256-.24-3.132-.72a4.982 4.982 0 01-1.998-2.106c-.468-.912-.702-2.01-.702-3.294 0-1.284.234-2.382.702-3.294.468-.912 1.134-1.608 1.998-2.088.876-.492 1.914-.738 3.114-.738 1.236 0 2.316.264 3.24.792.924.528 1.536 1.356 1.836 2.484l-2.718 1.098c-.168-.732-.444-1.236-.828-1.512-.372-.288-.846-.432-1.422-.432-.864 0-1.542.312-2.034.936-.48.624-.72 1.542-.72 2.754s.228 2.13.684 2.754c.468.624 1.164.936 2.088.936.576 0 1.062-.156 1.458-.468.408-.324.684-.816.828-1.476l2.808.792zM149.775 9.12v4.698h4.536V9.12h3.096V21h-3.096v-4.788h-4.536V21h-3.096V9.12h3.096zM164.945 21.18c-1.056 0-1.992-.246-2.808-.738-.804-.504-1.35-1.194-1.638-2.07l1.44-.738c.216.66.558 1.194 1.026 1.602.48.396 1.188.594 2.124.594.78 0 1.38-.204 1.8-.612.432-.42.648-.954.648-1.602 0-.648-.186-1.128-.558-1.44-.36-.324-.966-.486-1.818-.486-.264 0-.57.018-.918.054v-1.44c.108.012.21.018.306.018h.288c.876 0 1.5-.168 1.872-.504.372-.348.558-.888.558-1.62 0-.624-.192-1.098-.576-1.422-.384-.324-.93-.486-1.638-.486-.756 0-1.332.168-1.728.504-.396.324-.708.768-.936 1.332l-1.368-.648c.288-.744.786-1.356 1.494-1.836.72-.48 1.578-.72 2.574-.72.828 0 1.512.144 2.052.432.54.276.942.648 1.206 1.116.276.468.414.984.414 1.548 0 .852-.222 1.536-.666 2.052-.444.504-.966.804-1.566.9v.036c.528.012.978.144 1.35.396.372.24.654.558.846.954.204.384.306.798.306 1.242 0 .696-.174 1.314-.522 1.854-.336.54-.81.966-1.422 1.278-.612.3-1.326.45-2.142.45zM176.033 8.94c.948 0 1.722.198 2.322.594.6.384 1.086 1.02 1.458 1.908l-1.332.63c-.18-.552-.474-.984-.882-1.296-.396-.324-.948-.486-1.656-.486-.684 0-1.266.228-1.746.684-.48.444-.846 1.044-1.098 1.8-.24.756-.36 1.608-.36 2.556v.324h.072c.132-.516.372-.93.72-1.242.36-.324.762-.558 1.206-.702.456-.156.9-.234 1.332-.234.804 0 1.506.156 2.106.468a3.3 3.3 0 011.386 1.332c.336.576.504 1.26.504 2.052 0 1.176-.372 2.112-1.116 2.808-.732.696-1.722 1.044-2.97 1.044-.996 0-1.836-.264-2.52-.792-.684-.528-1.2-1.248-1.548-2.16-.348-.924-.522-1.98-.522-3.168 0-1.332.204-2.448.612-3.348.408-.912.96-1.602 1.656-2.07a4.214 4.214 0 012.376-.702zm-.072 5.922c-.768 0-1.392.228-1.872.684-.48.456-.72 1.044-.72 1.764 0 .456.114.876.342 1.26.228.372.534.672.918.9.396.216.84.324 1.332.324.816 0 1.452-.216 1.908-.648.456-.444.684-1.056.684-1.836 0-.756-.228-1.35-.684-1.782-.456-.444-1.092-.666-1.908-.666zM186.768 21.18c-1.344 0-2.418-.522-3.222-1.566-.804-1.044-1.206-2.562-1.206-4.554 0-1.992.402-3.51 1.206-4.554.804-1.044 1.878-1.566 3.222-1.566 1.356 0 2.43.522 3.222 1.566.804 1.044 1.206 2.562 1.206 4.554 0 1.992-.402 3.51-1.206 4.554-.792 1.044-1.866 1.566-3.222 1.566zm0-1.296c.96 0 1.686-.414 2.178-1.242.504-.828.756-2.022.756-3.582 0-1.572-.252-2.766-.756-3.582-.492-.828-1.218-1.242-2.178-1.242-.948 0-1.674.414-2.178 1.242-.504.816-.756 2.01-.756 3.582 0 1.56.252 2.754.756 3.582.504.828 1.23 1.242 2.178 1.242z" fill="#14404E"/><path d="M20 7.579L27.5 3 35 7.579V21H20V7.579z" fill="#27686D"/><path d="M11.06 5.174L8.5 6.737V21H0V7.579L7.5 3l3.56 2.174z" fill="#9ED3CE"/><path d="M21.06 5.174L18.5 6.737V21H10V7.579L17.5 3l3.56 2.174z" fill="#3C8486"/></symbol>
<symbol id="i-logo-light" viewBox="0 0 192 24" fill="none" xmlns="http://www.w3.org/2000/svg"><path d="M46.984 9.12c1.416 0 2.514.33 3.294.99.792.66 1.188 1.548 1.188 2.664 0 .888-.21 1.62-.63 2.196-.408.564-.996.978-1.764 1.242L52.168 21h-3.42l-2.538-4.338h-1.854V21h-3.042V9.12h5.67zm-.432 5.346c.6 0 1.05-.12 1.35-.36.3-.24.45-.624.45-1.152 0-.996-.6-1.494-1.8-1.494h-2.196v3.006h2.196zM54.724 21V9.12h9.252v2.394H57.82v2.412h4.896v2.25H57.82v2.43h6.39V21h-9.486zM65.838 21l4.176-11.88h3.708L77.88 21h-3.186l-.81-2.682H69.78L68.952 21h-3.114zm5.49-7.65l-.9 2.862h2.808l-.864-2.844-.522-1.872h-.036l-.486 1.854zM83.357 18.606h5.958V21h-9.054V9.12h3.096v9.486zM105.841 9.12V21h-2.736v-5.454l.09-3.654h-.036L100.225 21h-2.502l-2.934-9.108h-.036l.09 3.654V21H92.09V9.12h4.41l1.872 6.048.666 2.52h.036l.684-2.502 1.854-6.066h4.23zM108.23 21l4.176-11.88h3.708L120.272 21h-3.186l-.81-2.682h-4.104L111.344 21h-3.114zm5.49-7.65l-.9 2.862h2.808l-.864-2.844-.522-1.872h-.036l-.486 1.854zM131.15 9.12v2.394h-3.87V21h-3.096v-9.486h-3.888V9.12h10.854zM143.957 17.598c-.348 1.248-.99 2.16-1.926 2.736-.924.564-2.016.846-3.276.846-1.212 0-2.256-.24-3.132-.72a4.982 4.982 0 01-1.998-2.106c-.468-.912-.702-2.01-.702-3.294 0-1.284.234-2.382.702-3.294.468-.912 1.134-1.608 1.998-2.088.876-.492 1.914-.738 3.114-.738 1.236 0 2.316.264 3.24.792.924.528 1.536 1.356 1.836 2.484l-2.718 1.098c-.168-.732-.444-1.236-.828-1.512-.372-.288-.846-.432-1.422-.432-.864 0-1.542.312-2.034.936-.48.624-.72 1.542-.72 2.754s.228 2.13.684 2.754c.468.624 1.164.936 2.088.936.576 0 1.062-.156 1.458-.468.408-.324.684-.816.828-1.476l2.808.792zM149.775 9.12v4.698h4.536V9.12h3.096V21h-3.096v-4.788h-4.536V21h-3.096V9.12h3.096zM164.945 21.18c-1.056 0-1.992-.246-2.808-.738-.804-.504-1.35-1.194-1.638-2.07l1.44-.738c.216.66.558 1.194 1.026 1.602.48.396 1.188.594 2.124.594.78 0 1.38-.204 1.8-.612.432-.42.648-.954.648-1.602 0-.648-.186-1.128-.558-1.44-.36-.324-.966-.486-1.818-.486-.264 0-.57.018-.918.054v-1.44c.108.012.21.018.306.018h.288c.876 0 1.5-.168 1.872-.504.372-.348.558-.888.558-1.62 0-.624-.192-1.098-.576-1.422-.384-.324-.93-.486-1.638-.486-.756 0-1.332.168-1.728.504-.396.324-.708.768-.936 1.332l-1.368-.648c.288-.744.786-1.356 1.494-1.836.72-.48 1.578-.72 2.574-.72.828 0 1.512.144 2.052.432.54.276.942.648 1.206 1.116.276.468.414.984.414 1.548 0 .852-.222 1.536-.666 2.052-.444.504-.966.804-1.566.9v.036c.528.012.978.144 1.35.396.372.24.654.558.846.954.204.384.306.798.306 1.242 0 .696-.174 1.314-.522 1.854-.336.54-.81.966-1.422 1.278-.612.3-1.326.45-2.142.45zM176.033 8.94c.948 0 1.722.198 2.322.594.6.384 1.086 1.02 1.458 1.908l-1.332.63c-.18-.552-.474-.984-.882-1.296-.396-.324-.948-.486-1.656-.486-.684 0-1.266.228-1.746.684-.48.444-.846 1.044-1.098 1.8-.24.756-.36 1.608-.36 2.556v.324h.072c.132-.516.372-.93.72-1.242.36-.324.762-.558 1.206-.702.456-.156.9-.234 1.332-.234.804 0 1.506.156 2.106.468a3.3 3.3 0 011.386 1.332c.336.576.504 1.26.504 2.052 0 1.176-.372 2.112-1.116 2.808-.732.696-1.722 1.044-2.97 1.044-.996 0-1.836-.264-2.52-.792-.684-.528-1.2-1.248-1.548-2.16-.348-.924-.522-1.98-.522-3.168 0-1.332.204-2.448.612-3.348.408-.912.96-1.602 1.656-2.07a4.214 4.214 0 012.376-.702zm-.072 5.922c-.768 0-1.392.228-1.872.684-.48.456-.72 1.044-.72 1.764 0 .456.114.876.342 1.26.228.372.534.672.918.9.396.216.84.324 1.332.324.816 0 1.452-.216 1.908-.648.456-.444.684-1.056.684-1.836 0-.756-.228-1.35-.684-1.782-.456-.444-1.092-.666-1.908-.666zM186.768 21.18c-1.344 0-2.418-.522-3.222-1.566-.804-1.044-1.206-2.562-1.206-4.554 0-1.992.402-3.51 1.206-4.554.804-1.044 1.878-1.566 3.222-1.566 1.356 0 2.43.522 3.222 1.566.804 1.044 1.206 2.562 1.206 4.554 0 1.992-.402 3.51-1.206 4.554-.792 1.044-1.866 1.566-3.222 1.566zm0-1.296c.96 0 1.686-.414 2.178-1.242.504-.828.756-2.022.756-3.582 0-1.572-.252-2.766-.756-3.582-.492-.828-1.218-1.242-2.178-1.242-.948 0-1.674.414-2.178 1.242-.504.816-.756 2.01-.756 3.582 0 1.56.252 2.754.756 3.582.504.828 1.23 1.242 2.178 1.242z" fill="#fff"/><path d="M20 7.579L27.5 3 35 7.579V21H20V7.579z" fill="#E3F7F2"/><path d="M11.06 5.174L8.5 6.737V21H0V7.579L7.5 3l3.56 2.174z" fill="#3C8486"/><path d="M21.06 5.174L18.5 6.737V21H10V7.579L17.5 3l3.56 2.174z" fill="#9ED3CE"/></symbol>
<symbol id="i-mail" viewBox="0 0 24 24" fill="none" xmlns="http://www.w3.org/2000/svg"><path d="M22 19V7.5l-10 6-10-6V19h20z" fill="currentColor"/><path d="M2 5h20l-10 6L2 5z" fill="currentColor"/></symbol>
<symbol id="i-menu-hide" viewBox="0 0 24 24" fill="none" xmlns="http://www.w3.org/2000/svg"><path d="M9 5h12v2H9V5zM3 11h18v2H3v-2zM21 17H9v2h12v-2z" fill="currentColor"/></symbol>
<symbol id="i-menu-show" viewBox="0 0 24 24" fill="none" xmlns="http://www.w3.org/2000/svg"><path d="M15 5H3v2h12V5zM21 11H3v2h18v-2zM3 17h12v2H3v-2z" fill="currentColor"/></symbol>
<symbol id="i-menu" viewBox="0 0 24 24" fill="none" xmlns="http://www.w3.org/2000/svg"><path d="M3 5h18v2H3V5zM3 11h18v2H3v-2zM21 17H3v2h18v-2z" fill="currentColor"/></symbol>
<symbol id="i-more" viewBox="0 0 24 24" fill="none" xmlns="http://www.w3.org/2000/svg"><path d="M3 14a2 2 0 100-4 2 2 0 000 4zM14 12a2 2 0 11-4 0 2 2 0 014 0zM23 12a2 2 0 11-4 0 2 2 0 014 0z" fill="currentColor"/></symbol>
<symbol id="i-notification" viewBox="0 0 24 24" fill="none" xmlns="http://www.w3.org/2000/svg"><path d="M13 3.07V1h-2v2.07A7.002 7.002 0 005 10v6H3v2h18v-2h-2v-6a7.002 7.002 0 00-6-6.93zM15 20a3 3 0 11-6 0h6z" fill="currentColor"/></symbol>
<symbol id="i-organization" viewBox="0 0 24 24" fill="none" xmlns="http://www.w3.org/2000/svg"><path d="M16 3H8v2h8V3zM22 6H2v5h20V6zM10 13H3v8h18v-8h-7v2h-4v-2z" fill="currentColor"/></symbol>
<symbol id="i-print" viewBox="0 0 24 24" fill="none" xmlns="http://www.w3.org/2000/svg"><path d="M6 3h12v3H6V3z" fill="currentColor"/><path fill-rule="evenodd" clip-rule="evenodd" d="M2 8h20v9h-3v-3H5v3H2V8zm3 4a1 1 0 100-2 1 1 0 000 2z" fill="currentColor"/><path d="M17 16H7v5h10v-5z" fill="currentColor"/></symbol>
<symbol id="i-rate-bad" viewBox="0 0 24 24" fill="none" xmlns="http://www.w3.org/2000/svg"><path fill-rule="evenodd" clip-rule="evenodd" d="M13 22l-5-7H3V4h16l2 5v6h-7l1 5v2h-2zM8 6v7H5V6h3z" fill="currentColor"/></symbol>
<symbol id="i-rate-good" viewBox="0 0 24 24" fill="none" xmlns="http://www.w3.org/2000/svg"><path fill-rule="evenodd" clip-rule="evenodd" d="M13 2L8 9H3v11h16l2-5V9h-7l1-5V2h-2zM8 18v-7H5v7h3z" fill="currentColor"/></symbol>
<symbol id="i-rate-medium" viewBox="0 0 24 24" fill="none" xmlns="http://www.w3.org/2000/svg"><path fill-rule="evenodd" clip-rule="evenodd" d="M23 12l-7-5V2H5v16l5 2h6v-7l5 1h2v-2zM7 7h7V4H7v3z" fill="currentColor"/></symbol>
<symbol id="i-refresh" viewBox="0 0 24 24" fill="none" xmlns="http://www.w3.org/2000/svg"><path fill-rule="evenodd" clip-rule="evenodd" d="M12 3a9 9 0 00-9 9h2a7 7 0 0112.425-4.425L15 10h6V4l-2.156 2.156A8.98 8.98 0 0012 3zM5.29 14H9l-2.425 2.425A7 7 0 0019 12h2a9 9 0 01-15.844 5.844L3 20v-6h2.29z" fill="currentColor"/></symbol>
<symbol id="i-reset" viewBox="0 0 24 24" fill="none" xmlns="http://www.w3.org/2000/svg"><path d="M12 0v3a9 9 0 11-8.284 5.477l1.702 1.135A7 7 0 1012 5v3L6 4l6-4z" fill="currentColor"/></symbol>
<symbol id="i-save" viewBox="0 0 24 24" fill="none" xmlns="http://www.w3.org/2000/svg"><path fill-rule="evenodd" clip-rule="evenodd" d="M2 2h15l5 5v15H2V2zm13 13a3 3 0 11-6 0 3 3 0 016 0zm0-11H4v4h11V4z" fill="currentColor"/></symbol>
<symbol id="i-search-ms-region" viewBox="0 0 24 24" fill="none" xmlns="http://www.w3.org/2000/svg"><path fill-rule="evenodd" clip-rule="evenodd" d="M15 6L9 3 3 6v15l6-3 6 3 6-3V3l-6 3zm0 2.236l-6-3v10.528l6 3V8.236z" fill="currentColor"/></symbol>
<symbol id="i-search" viewBox="0 0 24 24" fill="none" xmlns="http://www.w3.org/2000/svg"><path fill-rule="evenodd" clip-rule="evenodd" d="M10.5 3a7.5 7.5 0 015.963 12.05L21 19.585 19.585 21l-4.536-4.537A7.5 7.5 0 1110.5 3zm0 2a5.5 5.5 0 100 11 5.5 5.5 0 000-11z" fill="currentColor"/></symbol>
<symbol id="i-section-comparison" viewBox="0 0 24 24" fill="none" xmlns="http://www.w3.org/2000/svg"><path fill-rule="evenodd" clip-rule="evenodd" d="M7 9l4 7a5 5 0 01-9.995.217L1 16l4-7h2zm12 0l4 7a5 5 0 01-9.995.217L13 16l4-7h2zM8.235 18H3.764l.1.107a2.993 2.993 0 001.959.888L6 19a2.99 2.99 0 002.103-.86l.132-.14zm12 0h-4.471l.1.107a2.993 2.993 0 001.959.888L18 19a2.99 2.99 0 002.103-.86l.132-.14zM6 10.75L3 16h6l-3-5.25zm12 0L15 16h6l-3-5.25zM12 3c1.306 0 2.418.835 2.83 2H19v2h-4.171a3.001 3.001 0 01-5.658 0H5V5h4.17A3.001 3.001 0 0112 3zm0 2a1 1 0 100 2 1 1 0 000-2z" fill="currentColor"/></symbol>
<symbol id="i-section-demand-index" viewBox="0 0 24 24" fill="none" xmlns="http://www.w3.org/2000/svg"><path fill-rule="evenodd" clip-rule="evenodd" d="M21 3v18H3v-6l6-6 3 3 9-9zm-2 4.828l-7 7-3-2.999-4 3.999V19h14V7.828z" fill="currentColor"/></symbol>
<symbol id="i-section-demand-milieus" viewBox="0 0 24 24" fill="none" xmlns="http://www.w3.org/2000/svg"><path fill-rule="evenodd" clip-rule="evenodd" d="M20.058 13.078A5 5 0 0112 19a5 5 0 11-7-7 5 5 0 015.922-8.058A6.494 6.494 0 009.92 5.695a3 3 0 100 4.61 6.52 6.52 0 003.775 3.774 3 3 0 104.61 0 6.491 6.491 0 001.753-1zM11 16a3 3 0 10-6 0 3 3 0 006 0z" fill="currentColor"/><path fill-rule="evenodd" clip-rule="evenodd" d="M16 11a3 3 0 100-6 3 3 0 000 6zm0 2a5 5 0 100-10 5 5 0 000 10z" fill="currentColor"/></symbol>
<symbol id="i-section-demand-search" viewBox="0 0 24 24" fill="none" xmlns="http://www.w3.org/2000/svg"><path fill-rule="evenodd" clip-rule="evenodd" d="M16 10a4 4 0 11-8 0 4 4 0 018 0zm-2 0a2 2 0 11-4 0 2 2 0 014 0z" fill="currentColor"/><path fill-rule="evenodd" clip-rule="evenodd" d="M20 10c0 9-8 12-8 12s-8-3-8-12a8 8 0 1116 0zm-2 0c0 3.83-1.676 6.33-3.368 7.916A12.327 12.327 0 0112 19.794a12.328 12.328 0 01-2.632-1.878C7.676 16.33 6 13.829 6 10a6 6 0 1112 0z" fill="currentColor"/></symbol>
<symbol id="i-section-market-tension" viewBox="0 0 20 20" fill="none" xmlns="http://www.w3.org/2000/svg"><path fill-rule="evenodd" clip-rule="evenodd" d="M.031 3.558l1.022-1.029 4.583 1.25.584.58 2.916 10.416-1.022 1.029-4.583-1.25-.583-.58L.03 3.559zm2.002.966l2.392 8.546 2.71.74-2.393-8.547-2.71-.739zM7.531 5.225l1.022-1.029 4.583 1.25.644-2.334 1.023-.583 4.583 1.25.584 1.026-3.333 12.083-1.023.583-4.583-1.25-.583-.58L7.53 5.225zm7.104 10.25L12.242 6.93l-2.71-.74 2.393 8.547 2.71.739zm1.193-1.92l2.314-8.388-2.976-.811-.95 3.443 1.612 5.756z" fill="currentColor"/></symbol>
<symbol id="i-section-price-setter" viewBox="0 0 24 24" fill="none" xmlns="http://www.w3.org/2000/svg"><path fill-rule="evenodd" clip-rule="evenodd" d="M21 3v9l-9 9-9-9 9-9h9zm-2 2h-6.17l-7.001 7L12 18.171l7-6.999V5zm-3.5 2a1.5 1.5 0 110 3 1.5 1.5 0 010-3z" fill="currentColor"/></symbol>
<symbol id="i-section-project-check" viewBox="0 0 24 24" fill="none" xmlns="http://www.w3.org/2000/svg"><path fill-rule="evenodd" clip-rule="evenodd" d="M11 6v2H5v3h14V8h2v12H3V6h8zm8 7h-5v2h-4v-2H5v5h14v-5zM21.293.293l1.414 1.414L16 8.414l-3.707-3.707 1.414-1.414L16 5.585 21.293.293z" fill="currentColor"/></symbol>
<symbol id="i-settings-admin" viewBox="0 0 24 24" fill="none" xmlns="http://www.w3.org/2000/svg"><path fill-rule="evenodd" clip-rule="evenodd" d="M17.1 0h1.8l.222 1.332c.496.119.962.314 1.385.574l1.1-.785 1.272 1.273-.785 1.099c.26.423.455.889.574 1.385L24 5.1v1.8l-1.332.222a4.772 4.772 0 01-.574 1.385l.785 1.1-1.273 1.272-1.099-.785c-.423.26-.889.455-1.385.574L18.9 12h-1.8l-.222-1.332a4.773 4.773 0 01-1.385-.574l-1.1.785-1.272-1.273.785-1.099a4.772 4.772 0 01-.574-1.385L12 6.9V5.1l1.332-.222c.119-.496.314-.962.574-1.385l-.785-1.1 1.273-1.272 1.099.785c.423-.26.889-.455 1.385-.574L17.1 0zm.9 9a3 3 0 100-6 3 3 0 000 6zm-6.35-7.866L3 4.442C3 15.546 6.375 20.987 12 23c3.947-1.412 6.786-4.02 8.129-9.286a8 8 0 01-8.48-12.58zM5.954 13H12v7.85c-2.024-.878-3.648-2.34-4.832-4.637-.474-.92-.883-1.984-1.214-3.213z" fill="currentColor"/></symbol>
<symbol id="i-settings" viewBox="0 0 24 24" fill="none" xmlns="http://www.w3.org/2000/svg"><path fill-rule="evenodd" clip-rule="evenodd" d="M10.5 2h3l.37 2.22a7.953 7.953 0 012.309.957l1.831-1.309 2.122 2.122-1.309 1.831c.433.705.76 1.482.957 2.309l2.22.37v3l-2.22.37a7.954 7.954 0 01-.957 2.309l1.309 1.831-2.122 2.122-1.831-1.309a7.954 7.954 0 01-2.309.957L13.5 22h-3l-.37-2.22a7.954 7.954 0 01-2.309-.957L5.99 20.132 3.868 18.01l1.309-1.831a7.953 7.953 0 01-.957-2.309L2 13.5v-3l2.22-.37a7.953 7.953 0 01.957-2.309L3.868 5.99 5.99 3.868 7.82 5.177a7.953 7.953 0 012.309-.957L10.5 2zM12 17a5 5 0 100-10 5 5 0 000 10z" fill="currentColor"/></symbol>
<symbol id="i-social-fb" viewBox="0 0 24 24" fill="none" xmlns="http://www.w3.org/2000/svg"><path fill-rule="evenodd" clip-rule="evenodd" d="M16.453 6.102s-1.144-.196-2.238-.196c-2.285 0-3.777 1.385-3.777 3.89V12h-2.54v2.97h2.54V22C5.657 21.245 2 17.083 2 12.061 2 6.505 6.477 2 12 2s10 4.505 10 10.061c0 5.022-3.657 9.184-8.438 9.939v-7.03h2.33l.444-2.909h-.01l.01-.061h-2.773v-1.826c0-.796.387-1.571 1.63-1.571h1.26V6.102z" fill="currentColor"/></symbol>
<symbol id="i-social-ig" viewBox="0 0 24 24" fill="none" xmlns="http://www.w3.org/2000/svg"><path fill-rule="evenodd" clip-rule="evenodd" d="M10.813 2h1.843l.834.002.462.002.39.003.31.004.25.005.208.005.178.005.096.003.107.004.15.006.231.01.207.009.085.004.08.004.04.002.079.005.19.015.075.006c.123.011.241.024.355.04l.068.008.1.015.064.01c.087.014.17.029.252.045l.06.012.06.013c.13.027.252.058.37.09l.055.016.027.008.054.016.026.008.053.016.026.008.052.017.05.018.052.017.025.01.05.017.05.019.024.009.05.019a4.902 4.902 0 011.77 1.153 4.9 4.9 0 011.154 1.771l.019.05.019.05.018.049.009.025.018.05.017.052.017.051.017.052.008.026.016.053.016.054c.073.25.135.521.184.823l.01.066.015.1.009.067c.014.114.028.232.039.355l.006.074c.006.062.01.126.015.191l.005.079.002.04.004.08.002.04.016.354.007.18.003.071.006.181.006.183.004.17.005.229.004.226.001.137.002.206.003.401.002.473.001.871v1.134l-.002.677v.346l-.004.463-.003.309-.004.272-.005.222-.003.146-.007.218-.003.092-.006.152-.007.181-.016.353-.002.04-.004.081c0 .014-.002.027-.003.04l-.004.079-.015.19-.006.075a9.052 9.052 0 01-.04.355l-.008.067-.015.1-.01.065c-.014.087-.029.17-.045.252l-.012.06c-.037.181-.08.35-.127.512l-.016.053-.016.053-.008.027-.017.052a4.435 4.435 0 01-.017.051l-.017.051-.018.05-.018.05-.01.026-.018.05-.019.048a4.9 4.9 0 01-1.153 1.772 4.903 4.903 0 01-1.771 1.153l-.05.019-.05.018-.049.019-.025.009-.05.017-.052.018-.051.017-.052.017-.027.008-.052.016-.054.016c-.25.073-.522.135-.824.184l-.065.01a8.52 8.52 0 01-.1.014l-.067.01a9.447 9.447 0 01-.355.039l-.074.006-.191.014-.079.005-.04.003-.08.004-.04.002-.354.015-.18.008-.072.003-.173.006-.158.005-.206.005-.153.003-.164.003-.257.004-.385.003-.455.003-.681.001h-2.242l-.57-.003-.381-.003-.25-.003-.15-.002-.234-.005-.172-.004-.185-.005-.14-.005-.151-.006-.181-.008-.353-.015-.04-.002-.081-.004-.04-.003-.079-.005a10.32 10.32 0 01-.19-.014l-.075-.006a9.444 9.444 0 01-.355-.04l-.068-.009a8.39 8.39 0 01-.1-.014l-.064-.01a7.457 7.457 0 01-.252-.045l-.06-.012c-.181-.037-.35-.08-.512-.127l-.053-.016-.053-.016-.027-.008-.052-.017a17.332 17.332 0 01-.051-.017l-.051-.018-.05-.017-.05-.018-.026-.01-.05-.018-.048-.019a4.903 4.903 0 01-1.772-1.153 4.902 4.902 0 01-1.153-1.772l-.019-.049-.018-.05a8.334 8.334 0 01-.01-.024l-.018-.05a8.423 8.423 0 01-.009-.025l-.017-.051a7.173 7.173 0 01-.017-.052l-.017-.051a13.136 13.136 0 01-.009-.026l-.016-.053a4.422 4.422 0 01-.008-.027l-.016-.053a4.612 4.612 0 01-.008-.027l-.015-.054a6.45 6.45 0 01-.091-.37l-.013-.06-.012-.061a7.353 7.353 0 01-.045-.252l-.01-.065a7.82 7.82 0 01-.014-.1l-.01-.067a9.17 9.17 0 01-.039-.355l-.006-.074-.015-.191-.004-.079-.003-.04-.004-.08-.006-.128-.012-.282-.007-.151-.004-.112-.007-.204-.005-.177-.005-.208-.003-.18-.003-.17-.003-.295-.003-.405L2 13.248 2 12.504v-1.068l.002-.916.002-.441.003-.406.004-.269.003-.217.003-.135.005-.19.005-.182.004-.118.006-.165.008-.19.013-.287.004-.084.004-.08.003-.04.004-.079.015-.191.006-.074c.011-.123.025-.241.04-.355l.009-.068.014-.1.01-.065c.014-.086.029-.17.045-.251l.012-.06.013-.06c.027-.13.058-.252.09-.37l.016-.055a6.14 6.14 0 01.008-.027l.016-.054.008-.026.016-.053.009-.026.017-.052.017-.05.017-.052.01-.025.017-.05.019-.05.019-.049.009-.025a4.901 4.901 0 011.153-1.77A4.902 4.902 0 015.45 2.524l.049-.02.05-.018.024-.009.05-.018a6.23 6.23 0 01.025-.009l.051-.017.052-.018.051-.017a5.71 5.71 0 01.026-.008l.053-.016.027-.008.053-.016.027-.008.054-.015c.119-.033.242-.064.37-.091l.06-.013.061-.012c.082-.016.165-.031.252-.045l.065-.01a8.18 8.18 0 01.1-.015l.067-.009c.114-.015.232-.028.355-.039l.074-.006c.063-.006.126-.01.191-.015l.079-.005.04-.002.08-.004.127-.006.283-.012.151-.007.112-.004.132-.005.18-.005.188-.005.178-.004.167-.003.235-.003.202-.002.392-.003.63-.002zm2.224 1.802H11.257l-.749.002-.398.001-.224.002-.205.002-.286.003-.21.004-.193.004-.202.006-.156.005-.09.004-.11.004-.188.008-.318.014-.06.004-.03.001-.06.004-.058.004-.057.004-.028.002-.056.005-.027.002-.053.005a8.15 8.15 0 00-.027.003L7.42 3.9l-.05.006-.05.006a6.607 6.607 0 00-.025.003l-.048.006-.048.006-.046.007-.045.007-.045.007-.043.007-.043.007-.041.008-.04.008-.06.011-.039.008-.037.009-.037.008-.036.008-.035.009-.035.008-.05.013-.033.01-.047.012-.03.01-.03.008-.045.014-.042.013-.041.014-.04.013-.025.01-.05.017-.047.018-.035.013c-.466.182-.8.398-1.15.748-.342.343-.557.67-.736 1.121l-.02.052-.023.059-.018.05-.009.025-.013.04-.014.04-.013.043-.014.044-.009.03-.009.03-.008.032-.014.049-.013.05-.008.034-.009.036-.008.036-.008.036-.012.057a5.014 5.014 0 00-.004.02l-.012.059-.008.04-.007.042-.008.043-.007.043-.007.045-.007.045-.006.046-.007.048-.006.048-.006.05a7.292 7.292 0 00-.003.024L3.9 7.42l-.005.052-.005.053-.003.027-.004.055-.003.028-.004.056-.004.057-.002.03-.004.059-.003.06-.003.062-.014.325-.007.15-.004.11-.007.187-.005.159-.003.144-.005.219-.004.241-.003.302-.002.314-.002.283-.002.672v2.148l.002.423.002.365.002.242.003.286.003.192.003.12.003.142.004.135.003.106.004.13.004.103.01.237.015.347.003.061.003.06.004.06.004.058.004.057.002.028.005.055.002.028.005.053.003.027.005.052.006.05.006.05c0 .009.002.017.003.025l.006.048.007.047.006.047.007.045.007.045.007.043.008.043.007.041.008.04.012.06.008.039.008.037.008.037.008.036.009.035.008.035.013.05.01.033.012.047.01.03.008.03.014.045.013.042.014.041.013.04.01.025.017.05.018.047.013.035c.182.466.399.8.748 1.15.343.342.67.557 1.121.736l.052.02.06.023.049.017.025.01.04.013.04.014.043.013.044.014.03.008.03.01.032.008.049.014.05.012.035.01.035.008.036.008.037.008.056.012.02.004.06.012.04.008.041.007.043.008.043.007.045.007.045.007.046.006.048.007.048.006.05.006.024.003.051.005.052.006.053.005c.01 0 .018.002.027.003l.055.004.028.003.056.004.058.004.029.002.06.004.06.003.061.003.325.014.15.007.11.004.193.007.217.006.166.004.224.005.276.003.377.004.375.002.749.002H12.784l.693-.002.526-.002.323-.003.282-.004.229-.004.21-.005.158-.004.135-.005.116-.004.11-.004.188-.008.287-.013.062-.003.06-.003.06-.004.057-.004.057-.004.028-.002.056-.005.027-.002.053-.005.027-.003.052-.006.05-.005.05-.006.025-.003.048-.006.048-.007.046-.006.045-.007.045-.007.043-.007.043-.008.041-.007.041-.008.06-.012.038-.008.038-.008.036-.008.036-.009.036-.008.034-.009.05-.012.033-.01.047-.013.031-.009.03-.008.044-.014.042-.013.041-.014.04-.014.025-.009.05-.018.047-.017.035-.014c.467-.18.8-.398 1.15-.748.342-.342.557-.669.736-1.12l.02-.052.023-.06.018-.049.009-.025.013-.04.014-.041.013-.042.014-.044.009-.03.009-.031.009-.031.013-.049.013-.05.008-.035.009-.035.008-.036.008-.037.012-.056.005-.02.011-.06.008-.04.008-.041.007-.043.007-.043.007-.045.007-.045.007-.047.006-.047.006-.048.006-.05.003-.024.006-.051.005-.052.005-.053.003-.027.005-.055.002-.028.004-.056.004-.058.002-.029.004-.06.003-.06.003-.061.013-.29.007-.153.007-.185.005-.145.005-.171.006-.22.004-.219.003-.267.003-.334.003-.462.002-.689v-1.579l-.002-.85-.002-.473-.004-.395-.003-.268-.005-.218-.004-.181-.005-.173-.004-.136-.004-.089-.004-.11-.008-.188-.013-.287-.003-.062-.003-.06-.004-.06-.004-.057-.004-.057-.002-.028-.005-.056-.002-.027-.005-.053-.003-.027-.005-.052-.006-.05-.006-.05a20.987 20.987 0 00-.003-.025l-.006-.048-.006-.048-.007-.046-.007-.045-.007-.045-.007-.043-.008-.043-.007-.041-.008-.041-.011-.06-.008-.038-.009-.038-.008-.036-.008-.036-.009-.036-.008-.034-.013-.05-.01-.033-.012-.047-.01-.031-.008-.03-.014-.044-.013-.042-.014-.041-.013-.04-.01-.025-.017-.05-.018-.048-.013-.034a3.097 3.097 0 00-.748-1.15 3.087 3.087 0 00-1.121-.736l-.052-.02-.059-.023-.05-.018-.025-.009-.04-.013-.04-.014-.043-.013-.044-.014-.03-.009-.03-.009-.032-.009-.049-.013-.05-.013-.034-.008-.036-.009-.036-.008-.037-.008-.056-.013a4.361 4.361 0 00-.02-.004l-.059-.011-.04-.008-.042-.008-.043-.007-.043-.007-.045-.007-.045-.007-.046-.007-.048-.006-.048-.006-.05-.006a6.719 6.719 0 00-.024-.003L16.58 3.9l-.052-.005-.053-.005a8.37 8.37 0 00-.027-.003l-.055-.005-.028-.002-.056-.004-.058-.004-.029-.002-.059-.004-.06-.003-.031-.002-.377-.017-.186-.007-.156-.006-.13-.004-.131-.004-.137-.004-.144-.003-.216-.004-.205-.002-.186-.002-.334-.003-.334-.001-.499-.002zM12 6.865a5.135 5.135 0 110 10.27 5.135 5.135 0 010-10.27zm0 1.802a3.333 3.333 0 100 6.666 3.333 3.333 0 000-6.666zm5.338-3.205a1.2 1.2 0 110 2.4 1.2 1.2 0 010-2.4z" fill="currentColor"/></symbol>
<symbol id="i-social-in" viewBox="0 0 24 24" fill="none" xmlns="http://www.w3.org/2000/svg"><path d="M19.04 19.041h-2.962v-4.64c0-1.107-.02-2.532-1.542-2.532-1.543 0-1.78 1.206-1.78 2.45v4.722H9.794V9.497h2.845v1.305h.04a3.118 3.118 0 012.807-1.542c3.003 0 3.557 1.976 3.557 4.546l-.001 5.235zM6.45 8.193a1.72 1.72 0 110-3.44 1.72 1.72 0 010 3.44zM7.93 19.04H4.965V9.497H7.93v9.544zm12.587-17.04H3.476A1.46 1.46 0 002 3.443v17.114A1.46 1.46 0 003.476 22h17.042c.808.01 1.47-.636 1.482-1.443V3.442A1.463 1.463 0 0020.518 2" fill="currentColor"/></symbol>
<symbol id="i-social-tw" viewBox="0 0 24 24" fill="none" xmlns="http://www.w3.org/2000/svg"><path fill-rule="evenodd" clip-rule="evenodd" d="M11.711 8.397l.043.715-.722-.088c-2.63-.336-4.928-1.474-6.879-3.385L3.2 4.691l-.245.7c-.52 1.561-.188 3.21.896 4.319.578.612.448.7-.55.335-.346-.117-.65-.204-.679-.16-.1.102.246 1.43.52 1.955.376.73 1.142 1.444 1.98 1.867l.709.336-.839.014c-.809 0-.838.015-.751.321.289.949 1.43 1.955 2.702 2.393l.896.306-.78.467a8.136 8.136 0 01-3.873 1.08c-.65.014-1.185.073-1.185.117 0 .145 1.763.962 2.79 1.283 3.077.949 6.733.54 9.479-1.08 1.95-1.152 3.902-3.442 4.812-5.66.492-1.182.983-3.34.983-4.377 0-.67.043-.758.852-1.56.477-.468.925-.978 1.012-1.124.145-.277.13-.277-.607-.03-1.228.438-1.402.38-.795-.277.448-.466.983-1.313.983-1.56 0-.044-.217.029-.462.16-.26.146-.839.365-1.272.496l-.78.248-.709-.481c-.39-.263-.939-.555-1.228-.642-.737-.205-1.864-.175-2.529.058-1.806.656-2.948 2.349-2.818 4.202z" fill="currentColor"/></symbol>
<symbol id="i-social-xi" viewBox="0 0 24 24" fill="none" xmlns="http://www.w3.org/2000/svg"><path d="M16.896 2.55c.154-.279.341-.55.772-.55h2.914c.174 0 .31.066.383.184.076.123.075.286-.006.445l-6.386 11.293a.017.017 0 000 .018l4.066 7.43c.081.16.083.322.006.446-.073.118-.209.184-.383.184h-2.88c-.443 0-.663-.294-.806-.55l-4.099-7.519L16.896 2.55zM5.157 6.13c.073-.12.22-.18.393-.18h2.884c.443 0 .66.285.803.54l1.984 3.459-3.114 5.507c-.148.266-.356.557-.787.557H4.435a.425.425 0 01-.376-.197c-.077-.123-.08-.283 0-.442l3.064-5.409c.004-.006.004-.01 0-.016l-1.95-3.376c-.08-.161-.092-.32-.016-.443z" fill="currentColor"/></symbol>
<symbol id="i-sort" viewBox="0 0 24 24" fill="none" xmlns="http://www.w3.org/2000/svg"><path d="M7 9l1 1 4-4 4 4 1-1-5-5-5 5zM7 15l1-1 4 4 4-4 1 1-5 5-5-5z" fill="currentColor"/></symbol>
<symbol id="i-status-approved-square" viewBox="0 0 24 24" fill="none" xmlns="http://www.w3.org/2000/svg"><path fill-rule="evenodd" clip-rule="evenodd" d="M2 2v20h20V2H2zm16 7l-1.5-1.5-6 6-3-3L6 12l4.5 4.5L18 9z" fill="currentColor"/></symbol>
<symbol id="i-status-approved" viewBox="0 0 24 24" fill="none" xmlns="http://www.w3.org/2000/svg"><path fill-rule="evenodd" clip-rule="evenodd" d="M22 12c0-5.523-4.477-10-10-10S2 6.477 2 12s4.477 10 10 10 10-4.477 10-10zm-4-3l-1.5-1.5-6 6-3-3L6 12l4.5 4.5L18 9z" fill="currentColor"/></symbol>
<symbol id="i-status-disapproval" viewBox="0 0 24 24" fill="none" xmlns="http://www.w3.org/2000/svg"><path fill-rule="evenodd" clip-rule="evenodd" d="M22 12c0-5.523-4.477-10-10-10S2 6.477 2 12s4.477 10 10 10 10-4.477 10-10zm-5-3.5L15.5 7 12 10.5 8.5 7 7 8.5l3.5 3.5L7 15.5 8.5 17l3.5-3.5 3.5 3.5 1.5-1.5-3.5-3.5L17 8.5z" fill="currentColor"/></symbol>
<symbol id="i-status-error" viewBox="0 0 24 24" fill="none" xmlns="http://www.w3.org/2000/svg"><path fill-rule="evenodd" clip-rule="evenodd" d="M12 2c5.523 0 10 4.477 10 10s-4.477 10-10 10S2 17.523 2 12 6.477 2 12 2zm0 13a1.5 1.5 0 100 3 1.5 1.5 0 000-3zm1.5-9h-3l.75 7h1.5l.75-7z" fill="currentColor"/></symbol>
<symbol id="i-status-faq" viewBox="0 0 24 24" fill="none" xmlns="http://www.w3.org/2000/svg"><path fill-rule="evenodd" clip-rule="evenodd" d="M12 2c5.523 0 10 4.477 10 10s-4.477 10-10 10S2 17.523 2 12 6.477 2 12 2zm0 5a2 2 0 00-2 2v1H8V9a4 4 0 014-4h.252A3.748 3.748 0 0116 8.748c0 1.067-.424 2.09-1.178 2.844L13.414 13A1.414 1.414 0 0013 14h-2c0-.905.36-1.774 1-2.414l1.408-1.408c.379-.38.592-.894.592-1.43C14 7.783 13.217 7 12.252 7H12zm0 9a1.5 1.5 0 100 3 1.5 1.5 0 000-3z" fill="currentColor"/></symbol>
<symbol id="i-status-info" viewBox="0 0 24 24" fill="none" xmlns="http://www.w3.org/2000/svg"><path fill-rule="evenodd" clip-rule="evenodd" d="M12 2c5.523 0 10 4.477 10 10s-4.477 10-10 10S2 17.523 2 12 6.477 2 12 2zm1 9v7h-2v-7h2zm-1-5a1.5 1.5 0 100 3 1.5 1.5 0 000-3z" fill="currentColor"/></symbol>
<symbol id="i-status-warning" viewBox="0 0 24 24" fill="none" xmlns="http://www.w3.org/2000/svg"><path fill-rule="evenodd" clip-rule="evenodd" d="M24 22L12 0 0 22h24zM13.5 8h-3l.75 6h1.5l.75-6zM12 16a1.5 1.5 0 100 3 1.5 1.5 0 000-3z" fill="currentColor"/></symbol>
<symbol id="i-subscription" viewBox="0 0 24 24" fill="none" xmlns="http://www.w3.org/2000/svg"><path d="M3 4a2 2 0 00-2 2v6h11.708A7.97 7.97 0 0118 10c1.892 0 3.63.657 5 1.755V6a2 2 0 00-2-2H3zM1 15h9.582a7.978 7.978 0 00-.52 4H3a2 2 0 01-2-2v-2z" fill="currentColor"/><path fill-rule="evenodd" clip-rule="evenodd" d="M18 12a6 6 0 110 12 6 6 0 010-12zm2.7 3.3l.9.9-4.5 4.5-2.7-2.7.9-.9 1.8 1.8 3.6-3.6z" fill="currentColor"/></symbol>
<symbol id="i-switzerland" viewBox="0 0 24 24" fill="none" xmlns="http://www.w3.org/2000/svg"><path d="M11 6h2v3h3v2h-3v3h-2v-3H8V9h3V6z" fill="currentColor"/><path fill-rule="evenodd" clip-rule="evenodd" d="M4 2v20h2v-4h14V2H4zm2 14h12V4H6v12z" fill="currentColor"/></symbol>
<symbol id="i-user" viewBox="0 0 24 24" fill="none" xmlns="http://www.w3.org/2000/svg"><path d="M15 9a3 3 0 11-6 0 3 3 0 016 0z" fill="currentColor"/><path fill-rule="evenodd" clip-rule="evenodd" d="M12 23c6.075 0 11-4.925 11-11S18.075 1 12 1 1 5.925 1 12s4.925 11 11 11zm6.84-5.15a9 9 0 10-13.68 0A7.995 7.995 0 0112 14a7.995 7.995 0 016.84 3.85z" fill="currentColor"/></symbol>
<symbol id="i-vector" viewBox="0 0 11 34" fill="none" xmlns="http://www.w3.org/2000/svg"><path d="M1 1l8 16-8 16" stroke="currentColor" stroke-width="2"/></symbol>
</svg>
